<svg id="wave" style="transform:rotate(180deg); transition: 0.3s" viewBox="0 0 1440 490" version="1.1" xmlns="http://www.w3.org/2000/svg"><defs><linearGradient id="sw-gradient-0" x1="0" x2="0" y1="1" y2="0"><stop stop-color="rgba(149, 156, 115, 0.7)" offset="0%"></stop><stop stop-color="rgba(251, 248, 242, 1)" offset="100%"></stop></linearGradient></defs><path style="transform:translate(0, 0px); opacity:1" fill="url(#sw-gradient-0)" d="M0,294L60,253.2C120,212,240,131,360,155.2C480,180,600,310,720,326.7C840,343,960,245,1080,212.3C1200,180,1320,212,1440,187.8C1560,163,1680,82,1800,106.2C1920,131,2040,261,2160,294C2280,327,2400,261,2520,212.3C2640,163,2760,131,2880,106.2C3000,82,3120,65,3240,73.5C3360,82,3480,114,3600,130.7C3720,147,3840,147,3960,163.3C4080,180,4200,212,4320,212.3C4440,212,4560,180,4680,171.5C4800,163,4920,180,5040,179.7C5160,180,5280,163,5400,204.2C5520,245,5640,343,5760,375.7C5880,408,6000,376,6120,375.7C6240,376,6360,408,6480,392C6600,376,6720,310,6840,236.8C6960,163,7080,82,7200,49C7320,16,7440,33,7560,65.3C7680,98,7800,147,7920,171.5C8040,196,8160,196,8280,228.7C8400,261,8520,327,8580,359.3L8640,392L8640,490L8580,490C8520,490,8400,490,8280,490C8160,490,8040,490,7920,490C7800,490,7680,490,7560,490C7440,490,7320,490,7200,490C7080,490,6960,490,6840,490C6720,490,6600,490,6480,490C6360,490,6240,490,6120,490C6000,490,5880,490,5760,490C5640,490,5520,490,5400,490C5280,490,5160,490,5040,490C4920,490,4800,490,4680,490C4560,490,4440,490,4320,490C4200,490,4080,490,3960,490C3840,490,3720,490,3600,490C3480,490,3360,490,3240,490C3120,490,3000,490,2880,490C2760,490,2640,490,2520,490C2400,490,2280,490,2160,490C2040,490,1920,490,1800,490C1680,490,1560,490,1440,490C1320,490,1200,490,1080,490C960,490,840,490,720,490C600,490,480,490,360,490C240,490,120,490,60,490L0,490Z"></path></svg>